<?xml version="1.0" encoding="utf-8"?>
<!-- Generator: Adobe Illustrator 22.1.0, SVG Export Plug-In . SVG Version: 6.00 Build 0)  -->
<svg version="1.1" id="Layer_1" xmlns="http://www.w3.org/2000/svg" xmlns:xlink="http://www.w3.org/1999/xlink" x="0px" y="0px"
	 viewBox="0 0 94.6 100" style="enable-background:new 0 0 94.6 100;" xml:space="preserve">
<style type="text/css">
	.st0{display:none;}
	.st1{display:none;fill:none;stroke:#000000;stroke-width:2;stroke-miterlimit:10;}
	.st2{display:none;fill:none;stroke:#F1B137;}
	.st3{fill-opacity:0;stroke:#F1B137;stroke-width:2;stroke-miterlimit:10;}
	.st4{display:none;fill-opacity:0;stroke:#F1B137;stroke-width:2;stroke-miterlimit:10;}
</style>
<path class="st0" d="M77.9,19.6c1.9,0,3.6-0.6,4.9-1.9c1.4-1.3,2-3,2-5c0-1.9-0.7-3.6-2-4.9c-1.4-1.4-3-2.1-4.9-2.1
	c-2,0-3.7,0.7-5,2.1c-1.4,1.4-2,3-2,4.9c0,2,0.6,3.7,2,5C74.2,18.9,75.9,19.6,77.9,19.6z"/>
<rect x="46.8" class="st0" width="6.9" height="100"/>
<g>
	<g>
		<line class="st1" x1="84.8" y1="40.4" x2="85.7" y2="40.4"/>
	</g>
	<g>
		<line class="st2" x1="84.8" y1="40.4" x2="85.7" y2="40.4"/>
	</g>
</g>
<path class="st3" d="M46.5,61.7v24.4c0,0.9-0.3,1.7-0.9,2.3c-0.6,0.6-1.4,0.9-2.3,0.9c-1,0-1.8-0.3-2.4-0.9c-0.7-0.6-1-1.4-1-2.3
	V61.7h-9.1l9.4-32.1h-1.6c-1,3.6-1.9,6.5-2.6,8.8c-0.6,2.3-1.3,4.5-1.9,6.5c-0.7,2.1-1.1,3.4-1.2,3.8c-0.4,1.4-1.3,2-2.7,2l-0.7-0.1
	c-1.3-0.5-2-1.3-2-2.6c0-0.3,0-0.6,0.2-0.9c0.1-0.2,0.4-1,0.7-2.4c0.4-1.4,0.9-3,1.5-5c0.6-2,1.2-4.2,1.9-6.5
	c0.7-2.3,1.3-4.6,2.1-6.7c0.5-1.7,1.5-3.2,3-4.5c1.5-1.4,3.1-2,4.8-2h11.2c0.4,0,4.8,0.3,4.8,0.3s1.1,0.1,2.4,0.7
	c1.3,0.7,1,0.3,1.7,1.9c0.7,1.6,0.8,4.2,0.8,4.2l0.1,5.9l0,7.4c0,0,0.6,6.6-0.2,8.3c-0.8,1.6-4.3,1.7-5.1,0.8s-0.7-20.1-1.1-20
	c-0.1,0-1.2,0.4-1.3,2.3c-0.4,5.4,0,16,0,16.4c-0.2,5.5-0.2,9.5-0.2,9.5v2.9v25.4c0,0.9-0.3,1.7-1,2.3c-0.6,0.6-1.4,0.9-2.4,0.9
	s-1.7-0.3-2.4-0.9c-0.6-0.6-0.9-1.4-0.9-2.3V61.7H46.5z"/>
<path class="st3" d="M48.4,18.2c1.9,0,3.6-0.6,4.8-1.9c1.3-1.3,2-3,2-5c0-1.9-0.7-3.6-2-4.9c-1.3-1.4-2.9-2.1-4.8-2.1
	c-2,0-3.7,0.7-5.1,2.1c-1.4,1.4-2,3-2,4.9c0,2,0.7,3.7,2,5C44.7,17.5,46.4,18.2,48.4,18.2z"/>
<path class="st4" d="M55.8,31.6v19.6c0,0.8,0.3,1.6,0.8,2.2c0.6,0.6,1.4,0.9,2.2,0.9c1,0,1.7-0.3,2.2-0.9c0.5-0.6,0.8-1.3,0.8-2.2
	V29.3c0-2.4-0.9-4.5-2.6-6.3C57.6,21.2,55.8,31.6,55.8,31.6z"/>
</svg>
